<svg width="20" height="21" viewBox="0 0 20 21" fill="none" xmlns="http://www.w3.org/2000/svg">
<path fill-rule="evenodd" clip-rule="evenodd" d="M10 0.5C7.284 0.5 6.944 0.512 5.877 0.56C4.813 0.609 4.086 0.778 3.45 1.025C2.78249 1.27584 2.17775 1.66933 1.678 2.178C1.16936 2.67777 0.775874 3.2825 0.525 3.95C0.278 4.586 0.109 5.313 0.0599999 6.377C0.0109999 7.444 0 7.784 0 10.5C0 13.216 0.0109999 13.556 0.0599999 14.623C0.109 15.687 0.278 16.414 0.525 17.05C0.775903 17.7175 1.16938 18.3222 1.678 18.822C2.17779 19.3306 2.78252 19.7241 3.45 19.975C4.086 20.222 4.813 20.391 5.877 20.44C6.944 20.488 7.284 20.5 10 20.5C12.716 20.5 13.056 20.488 14.123 20.44C15.187 20.391 15.914 20.222 16.55 19.975C17.2175 19.7241 17.8222 19.3306 18.322 18.822C18.8306 18.3222 19.2241 17.7175 19.475 17.05C19.722 16.414 19.891 15.687 19.94 14.623C19.988 13.556 20 13.216 20 10.5C20 7.784 19.988 7.444 19.94 6.377C19.891 5.313 19.722 4.586 19.475 3.95C19.2241 3.2825 18.8306 2.67777 18.322 2.178C17.8222 1.66933 17.2175 1.27584 16.55 1.025C15.914 0.778 15.187 0.609 14.123 0.56C13.056 0.512 12.716 0.5 10 0.5ZM10 2.302C12.67 2.302 12.986 2.312 14.04 2.36C15.016 2.405 15.545 2.567 15.898 2.704C16.364 2.886 16.698 3.103 17.048 3.452C17.398 3.802 17.614 4.136 17.796 4.602C17.932 4.955 18.096 5.484 18.14 6.459C18.188 7.514 18.198 7.829 18.198 10.5C18.198 13.17 18.188 13.486 18.14 14.54C18.095 15.516 17.932 16.045 17.796 16.398C17.6357 16.8324 17.3801 17.2253 17.048 17.548C16.698 17.898 16.364 18.114 15.898 18.296C15.545 18.432 15.016 18.596 14.041 18.64C12.987 18.688 12.671 18.698 10 18.698C7.33 18.698 7.013 18.688 5.96 18.64C4.984 18.595 4.455 18.432 4.102 18.296C3.66758 18.1357 3.27462 17.8801 2.952 17.548C2.61986 17.2254 2.36426 16.8324 2.204 16.398C2.067 16.045 1.904 15.516 1.86 14.541C1.812 13.486 1.802 13.171 1.802 10.5C1.802 7.83 1.812 7.514 1.86 6.46C1.905 5.484 2.067 4.955 2.204 4.602C2.386 4.136 2.603 3.802 2.952 3.452C3.302 3.102 3.636 2.886 4.102 2.704C4.455 2.567 4.984 2.404 5.959 2.36C7.014 2.312 7.329 2.302 10 2.302ZM10 13.833C9.11603 13.833 8.26827 13.4818 7.64321 12.8568C7.01815 12.2317 6.667 11.384 6.667 10.5C6.667 9.61603 7.01815 8.76827 7.64321 8.14321C8.26827 7.51815 9.11603 7.167 10 7.167C10.884 7.167 11.7317 7.51815 12.3568 8.14321C12.9818 8.76827 13.333 9.61603 13.333 10.5C13.333 11.384 12.9818 12.2317 12.3568 12.8568C11.7317 13.4818 10.884 13.833 10 13.833ZM10 5.365C9.32566 5.365 8.65793 5.49782 8.03492 5.75588C7.41191 6.01394 6.84584 6.39218 6.36901 6.86901C5.89218 7.34584 5.51394 7.91191 5.25588 8.53492C4.99782 9.15793 4.865 9.82566 4.865 10.5C4.865 11.1743 4.99782 11.8421 5.25588 12.4651C5.51394 13.0881 5.89218 13.6542 6.36901 14.131C6.84584 14.6078 7.41191 14.9861 8.03492 15.2441C8.65793 15.5022 9.32566 15.635 10 15.635C11.3619 15.635 12.668 15.094 13.631 14.131C14.594 13.168 15.135 11.8619 15.135 10.5C15.135 9.13811 14.594 7.83201 13.631 6.86901C12.668 5.90601 11.3619 5.365 10 5.365ZM16.538 5.162C16.538 5.31959 16.507 5.47563 16.4467 5.62122C16.3863 5.76681 16.298 5.8991 16.1865 6.01053C16.0751 6.12196 15.9428 6.21035 15.7972 6.27066C15.6516 6.33096 15.4956 6.362 15.338 6.362C15.1804 6.362 15.0244 6.33096 14.8788 6.27066C14.7332 6.21035 14.6009 6.12196 14.4895 6.01053C14.378 5.8991 14.2897 5.76681 14.2293 5.62122C14.169 5.47563 14.138 5.31959 14.138 5.162C14.138 4.84374 14.2644 4.53852 14.4895 4.31347C14.7145 4.08843 15.0197 3.962 15.338 3.962C15.6563 3.962 15.9615 4.08843 16.1865 4.31347C16.4116 4.53852 16.538 4.84374 16.538 5.162Z" fill="white"/>
</svg>
