<svg width="21" height="21" viewBox="0 0 21 21" fill="none" xmlns="http://www.w3.org/2000/svg">
<path fill-rule="evenodd" clip-rule="evenodd" d="M2.75 0.5C2.02065 0.5 1.32118 0.789731 0.805456 1.30546C0.289731 1.82118 0 2.52065 0 3.25C0 3.97935 0.289731 4.67882 0.805456 5.19454C1.32118 5.71027 2.02065 6 2.75 6C3.47935 6 4.17882 5.71027 4.69454 5.19454C5.21027 4.67882 5.5 3.97935 5.5 3.25C5.5 2.52065 5.21027 1.82118 4.69454 1.30546C4.17882 0.789731 3.47935 0.5 2.75 0.5ZM1.5 3.25C1.5 2.91848 1.6317 2.60054 1.86612 2.36612C2.10054 2.1317 2.41848 2 2.75 2C3.08152 2 3.39946 2.1317 3.63388 2.36612C3.8683 2.60054 4 2.91848 4 3.25C4 3.58152 3.8683 3.89946 3.63388 4.13388C3.39946 4.3683 3.08152 4.5 2.75 4.5C2.41848 4.5 2.10054 4.3683 1.86612 4.13388C1.6317 3.89946 1.5 3.58152 1.5 3.25ZM0 7.25C0 7.05109 0.0790175 6.86032 0.21967 6.71967C0.360322 6.57902 0.551088 6.5 0.75 6.5H4.75C4.94891 6.5 5.13968 6.57902 5.28033 6.71967C5.42098 6.86032 5.5 7.05109 5.5 7.25V20.25C5.5 20.4489 5.42098 20.6397 5.28033 20.7803C5.13968 20.921 4.94891 21 4.75 21H0.75C0.551088 21 0.360322 20.921 0.21967 20.7803C0.0790175 20.6397 0 20.4489 0 20.25V7.25ZM1.5 8V19.5H4V8H1.5ZM7 7.25C7 7.05109 7.07902 6.86032 7.21967 6.71967C7.36032 6.57902 7.55109 6.5 7.75 6.5H11.75C11.9489 6.5 12.1397 6.57902 12.2803 6.71967C12.421 6.86032 12.5 7.05109 12.5 7.25V7.684L12.935 7.497C13.685 7.17648 14.4807 6.9757 15.293 6.902C18.068 6.65 20.5 8.83 20.5 11.63V20.25C20.5 20.4489 20.421 20.6397 20.2803 20.7803C20.1397 20.921 19.9489 21 19.75 21H15.75C15.5511 21 15.3603 20.921 15.2197 20.7803C15.079 20.6397 15 20.4489 15 20.25V13.25C15 12.9185 14.8683 12.6005 14.6339 12.3661C14.3995 12.1317 14.0815 12 13.75 12C13.4185 12 13.1005 12.1317 12.8661 12.3661C12.6317 12.6005 12.5 12.9185 12.5 13.25V20.25C12.5 20.4489 12.421 20.6397 12.2803 20.7803C12.1397 20.921 11.9489 21 11.75 21H7.75C7.55109 21 7.36032 20.921 7.21967 20.7803C7.07902 20.6397 7 20.4489 7 20.25V7.25ZM8.5 8V19.5H11V13.25C11 12.5207 11.2897 11.8212 11.8055 11.3055C12.3212 10.7897 13.0207 10.5 13.75 10.5C14.4793 10.5 15.1788 10.7897 15.6945 11.3055C16.2103 11.8212 16.5 12.5207 16.5 13.25V19.5H19V11.63C19 9.726 17.339 8.222 15.43 8.396C14.7742 8.45567 14.1317 8.61763 13.526 8.876L12.046 9.511C11.9318 9.56003 11.8073 9.57994 11.6836 9.56893C11.5598 9.55793 11.4407 9.51635 11.337 9.44794C11.2333 9.37953 11.1482 9.28643 11.0894 9.177C11.0306 9.06757 10.9999 8.94524 11 8.821V8H8.5Z" fill="white"/>
</svg>
