<svg width="53" height="53" viewBox="0 0 53 53" fill="none" xmlns="http://www.w3.org/2000/svg">
<path d="M10.836 12.0656C11.1653 2.19702 23.4046 -2.02601 29.7697 5.31148L30.0678 5.66928C32.5084 8.71542 36.1206 10.582 40.0051 10.8177L40.3825 10.8353C50.251 11.1646 54.4741 23.404 47.1366 29.769L46.7788 30.0671C43.7326 32.5077 41.8661 36.1199 41.6303 40.0044L41.6128 40.3818C41.2834 50.2503 29.0441 54.4734 22.6791 47.1359L22.381 46.7781C19.9403 43.7319 16.3281 41.8654 12.4436 41.6296L12.0663 41.6121C2.19772 41.2827 -2.02532 29.0434 5.31217 22.6784L5.66998 22.3803C8.71612 19.9396 10.5827 16.3274 10.8184 12.4429L10.836 12.0656Z" stroke="#127767" stroke-width="3"/>
</svg>
