<svg width="24" height="25" viewBox="0 0 24 25" fill="none" xmlns="http://www.w3.org/2000/svg">
<path d="M17.415 14.882C17.118 14.733 15.657 14.015 15.385 13.915C15.112 13.816 14.914 13.767 14.715 14.065C14.518 14.362 13.948 15.031 13.775 15.229C13.602 15.428 13.428 15.452 13.131 15.304C12.834 15.154 11.876 14.841 10.741 13.829C9.858 13.041 9.261 12.068 9.088 11.77C8.915 11.473 9.07 11.312 9.218 11.164C9.352 11.031 9.516 10.817 9.664 10.644C9.813 10.47 9.862 10.346 9.962 10.147C10.061 9.94904 10.012 9.77604 9.937 9.62704C9.862 9.47804 9.268 8.01504 9.021 7.42004C8.779 6.84104 8.534 6.92004 8.352 6.91004C8.1621 6.90248 7.97205 6.89914 7.782 6.90004C7.584 6.90004 7.262 6.97404 6.99 7.27204C6.718 7.56904 5.95 8.28804 5.95 9.75104C5.95 11.213 7.015 12.626 7.163 12.825C7.312 13.023 9.259 16.025 12.24 17.312C12.949 17.618 13.502 17.801 13.934 17.937C14.646 18.164 15.294 18.132 15.805 18.055C16.376 17.97 17.563 17.336 17.811 16.642C18.059 15.948 18.059 15.353 17.984 15.229C17.91 15.105 17.713 15.031 17.415 14.882ZM11.993 22.285H11.989C10.2188 22.2852 8.48108 21.8092 6.958 20.907L6.597 20.693L2.856 21.675L3.854 18.027L3.619 17.653C2.62944 16.0773 2.10594 14.2537 2.109 12.393C2.11 6.94304 6.545 2.50904 11.997 2.50904C14.637 2.50904 17.119 3.53904 18.985 5.40704C19.9057 6.32366 20.6354 7.41377 21.132 8.61428C21.6286 9.8148 21.8821 11.1019 21.878 12.401C21.875 17.851 17.441 22.285 11.993 22.285ZM20.406 3.98804C19.3042 2.87896 17.9932 1.99958 16.5491 1.40084C15.1049 0.802105 13.5563 0.495924 11.993 0.500041C5.438 0.500041 0.103 5.83504 0.1 12.392C0.1 14.488 0.647 16.534 1.688 18.337L0 24.5L6.305 22.846C8.04859 23.796 10.0024 24.2938 11.988 24.294H11.993C18.547 24.294 23.883 18.959 23.886 12.401C23.8908 10.8383 23.5858 9.29014 22.9884 7.84607C22.3911 6.40201 21.5134 5.09071 20.406 3.98804Z" fill="white"/>
</svg>
